<svg xmlns="http://www.w3.org/2000/svg" viewBox="0 0 603.74 101.41"><defs><style>.cls-1{fill:#ebc882;}</style></defs><g id="kunimasu"><path class="cls-1" d="M19.16,40.05,22.1,36.3,54.25,0H79.44L38.71,44.21,79.57,98.59H54.92L24.51,56.53l-4.82,4.82V98.59H0V0H19.69V35.1Z"/><path class="cls-1" d="M150.17,40.05V98.59h-17l-1.34-9.37a22.88,22.88,0,0,1-8.64,8.9,25.19,25.19,0,0,1-13.06,3.29,19,19,0,0,1-13.39-5,16.8,16.8,0,0,1-5.5-12.59V40.05H110V76.89q.4,8.58,7.9,8.57,6.16,0,9.85-6t3.68-15.54V40.05Z"/><path class="cls-1" d="M224,42.2a16.53,16.53,0,0,1,5.7,12.59v43.8H211V61.76q-.4-8.58-8.57-8.58-6.43,0-10.32,6t-3.88,15.54V98.59H169.45V40.05h17l1.34,9.38a22.87,22.87,0,0,1,8.91-9,26.84,26.84,0,0,1,13.46-3.22A20,20,0,0,1,224,42.2Z"/><path class="cls-1" d="M251.77,12.53a10.62,10.62,0,0,1,7.17-2.75,10.18,10.18,0,0,1,7,2.75A8.68,8.68,0,0,1,269,19.29,8.5,8.5,0,0,1,265.9,26a10.29,10.29,0,0,1-7,2.68A10.74,10.74,0,0,1,251.77,26a8.44,8.44,0,0,1-3.15-6.7A8.62,8.62,0,0,1,251.77,12.53Zm16,27.52V98.59H249V40.05Z"/><path class="cls-1" d="M378,41.93a17.5,17.5,0,0,1,5.42,12.73V98.59H364.76V62.42a16.53,16.53,0,0,0-1.47-6.63q-1.21-2.2-4.69-2.47-6.57,0-10.25,6.36a29.23,29.23,0,0,0-3.68,14.93v24H325.91V62.42a14.93,14.93,0,0,0-1.6-6.63q-1.35-2.2-5-2.47-6.3,0-9.91,6.36a29.17,29.17,0,0,0-3.62,14.67V98.59H287.07V40.05h17l1.34,9.25q7.09-12.19,21.16-12.19c4.74,0,8.64,1,11.73,2.88a14.75,14.75,0,0,1,6.36,8.5,29.6,29.6,0,0,1,8.91-8.3,20.4,20.4,0,0,1,10.65-3.08Q372.79,37.11,378,41.93Z"/><path class="cls-1" d="M465.63,40.05V98.59H446.88V91.36q-8.44,8.83-19.56,8.84-13,0-21.1-7.77t-8.1-23a35,35,0,0,1,3.95-16.94,29.3,29.3,0,0,1,10.51-11.33,26.57,26.57,0,0,1,14.07-4q7.77,0,12.32,2.34a25.17,25.17,0,0,1,8,6.63l1.21-6Zm-18.75,36V61.76a13.75,13.75,0,0,0-5.56-6.84A16.89,16.89,0,0,0,432,52.38a14,14,0,0,0-10.52,4.55,16,16,0,0,0-4.35,11.52,16.83,16.83,0,0,0,2.14,8.38,16,16,0,0,0,5.69,6,14.65,14.65,0,0,0,7.71,2.14Q442.45,84.93,446.88,76.09Z"/><path class="cls-1" d="M490.41,97.25A28,28,0,0,1,480,90.15l7.77-10.31q7.77,7.23,14.6,7.23a12.75,12.75,0,0,0,5.83-1.14,3.64,3.64,0,0,0,2.21-3.41,4.45,4.45,0,0,0-2.54-4.09,28.31,28.31,0,0,0-5.7-2.34c-2.1-.63-3.5-1-4.22-1.21q-7.64-2.4-11.38-7.16a17.14,17.14,0,0,1-3.75-10.92,18.81,18.81,0,0,1,2.47-9.18A19,19,0,0,1,493,40.25a26.72,26.72,0,0,1,13-2.87,44.85,44.85,0,0,1,12.32,1.47,32,32,0,0,1,9.78,4.82l-7.1,11a25.21,25.21,0,0,0-6-3.55,15.27,15.27,0,0,0-6-1.41A9.27,9.27,0,0,0,503.81,51a3.83,3.83,0,0,0-2,3.21,4.3,4.3,0,0,0,2.34,4.22,36.51,36.51,0,0,0,7.7,2.88l1.68.54c.58.18,1.18.36,1.81.53Q529.12,67,529.12,79a19.6,19.6,0,0,1-2.81,10.31,20.18,20.18,0,0,1-8.5,7.57,30.49,30.49,0,0,1-13.87,2.88A35.72,35.72,0,0,1,490.41,97.25Z"/><path class="cls-1" d="M603.74,40.05V98.59h-17l-1.34-9.37a23,23,0,0,1-8.64,8.9,25.25,25.25,0,0,1-13.07,3.29,19,19,0,0,1-13.39-5,16.8,16.8,0,0,1-5.49-12.59V40.05h18.75V76.89q.41,8.58,7.9,8.57,6.16,0,9.85-6T585,63.9V40.05Z"/></g></svg>